<?xml version="1.0" encoding="UTF-8"?>
<svg id="Layer_2" xmlns="http://www.w3.org/2000/svg" viewBox="0 0 512 512">
  <defs>
    <style>
      .cls-1 {
        fill: #fff;
      }

      .cls-2 {
        fill: none;
      }
    </style>
  </defs>
  <g id="Layer_1-2" data-name="Layer_1">
    <rect class="cls-2" width="512" height="512"/>
    <g>
      <polygon points="199.05 394.48 197.39 404.88 196.63 409.53 197.35 404.88 198.91 394.48 199.05 394.48"/>
      <path d="M462.32,223.23c-15.98,35.3-51.31,56.1-88.24,54.75l-21.36,133.83-9.43,59.05-64.77-29.3-27.43-12.41h46.98l26.11-163.65c38.62-4.06,72.85-28.43,89.18-64.42,15.57-34.43,12.31-73.64-7.52-104.74,3.36,1.07,6.73,2.36,10.02,3.85,46.77,21.15,67.58,76.35,46.46,123.05Z"/>
      <path class="cls-1" d="M194.65,422.67l10.89,4.92,3.47,1.56h.03l147.81,66.85,32.11-201.24c38.66-4.06,72.88-28.43,89.18-64.39,12.1-26.8,13.04-56.79,2.64-84.36-10.4-27.6-30.93-49.51-57.73-61.61-11.13-5.06-22.85-8.18-34.88-9.29-8.77-8.29-18.83-14.98-29.92-20.04-11.16-5.03-22.85-8.15-34.85-9.26-8.77-8.29-18.83-14.98-29.92-20.04-14.35-6.48-29.61-9.78-45.28-9.78-43.37,0-82.9,25.45-100.72,64.84-15.64,34.57-12.24,74.65,8.04,105.82L24.06,345.56l85.47,38.62,85.02,38.45M244.54,219.39l-20.18,126.38-7.77,48.71-2.77,17.34-.07.45-1.01-.45h-.07l-15.29-6.93h-.03l-15.91-7.21-64.77-29.3-64.77-29.26,125.65-151.9c-23.26-26.87-29.58-65.43-14.28-99.23,21.12-46.67,76.35-67.51,123.05-46.39,2.11.94,4.16,1.98,6.14,3.09,8.91,4.82,16.75,10.96,23.37,18.03,10.26,10.92,17.61,24.13,21.67,38.35,5.79,20.39,4.68,42.85-4.72,63.62s-25.52,36.54-44.76,45.7c-13.38,6.41-28.29,9.57-43.48,9.01ZM462.32,223.23c-15.98,35.3-51.31,56.1-88.24,54.75l-21.36,133.83-9.43,59.05-64.77-29.3-27.43-12.41h46.98l26.11-163.65c38.62-4.06,72.85-28.43,89.18-64.42,15.57-34.43,12.31-73.64-7.52-104.74,3.36,1.07,6.73,2.36,10.02,3.85,46.77,21.15,67.58,76.35,46.46,123.05Z"/>
      <path d="M332.78,164.67c-9.4,20.77-25.52,36.54-44.76,45.7-13.38,6.41-28.29,9.57-43.48,9.01l-20.18,126.38-7.77,48.71-2.77,17.34-.07.45-1.01-.45h-.07l-15.29-6.93h-.03l-15.91-7.21-64.77-29.3-64.77-29.26,125.65-151.9c-23.26-26.87-29.58-65.43-14.28-99.23,21.12-46.67,76.35-67.51,123.05-46.39,2.11.94,4.16,1.98,6.14,3.09,8.91,4.82,16.75,10.96,23.37,18.03,10.26,10.92,17.61,24.13,21.67,38.35,5.79,20.39,4.68,42.85-4.72,63.62Z"/>
    </g>
  </g>
</svg>